<svg xmlns="http://www.w3.org/2000/svg" viewBox="0 0 1280 720" fill="none">
  <path
    d="M238 94C151.963 94 82 163.963 82 250V344h118.5c14.911-24.637 32.922-48.473 55.5-70.5 37.9-36.9 85.623-63.265 141-73.5V94H238Z"
    fill="#FF1D25"
  />
  <path
    d="M292 94c-77.32 0-140 62.68-140 140 0 77.32 62.68 140 140 140h246V266H292c-17.673 0-32-14.327-32-32 0-17.673 14.327-32 32-32h338l76-108H292Z"
    fill="#FF1D25"
  />
  <path
    d="M130 440 54 548h274c77.32 0 140-62.68 140-140v-42H352v42c0 17.673-14.327 32-32 32H130Z"
    fill="#2A2C31"
  />
  <path
    d="M468 202H352v108h168v34c0 55.228-44.772 100-100 100h-70c-23.225 0-42.667-7.666-57-21.5 19.992-21.52 39.094-37.949 60.5-50.5 9.037 1.333 18.795 2 29.5 2h19c55.228 0 100-44.772 100-100v-72Z"
    fill="#2A2C31"
  />
  <path
    d="M434 202H352c-55.377 10.235-103.1 36.6-141 73.5-22.578 22.027-40.589 45.863-55.5 70.5l37.5 94.5C220.229 394.782 249.89 356.27 286 328c26.624-20.844 53.933-34.178 82-42v-84h66Z"
    fill="#2A2C31"
  />
  <text
    x="170"
    y="670"
    fill="#0B0B0F"
    font-family="Arial, Helvetica, sans-serif"
    font-size="240"
    font-weight="700"
    letter-spacing="-8"
  >
    Syner
  </text>
  <text
    x="910"
    y="670"
    fill="#FF1D25"
    font-family="Arial, Helvetica, sans-serif"
    font-size="240"
    font-weight="700"
    letter-spacing="-8"
  >
    G
  </text>
</svg>
